HIERARCHY
ROOT Hips
{
	OFFSET 22.476786 14.936509 8.291926
	CHANNELS 6 Xposition Yposition Zposition Zrotation Yrotation Xrotation
	JOINT LHipJoint
	{
		OFFSET 1.970282 0.662079 -2.337558
		CHANNELS 3 Zrotation Yrotation Xrotation
		JOINT LeftUpLeg
		{
			OFFSET -1.485446 -9.756525 -6.513902
			CHANNELS 3 Zrotation Yrotation Xrotation
			JOINT LeftLeg
			{
				OFFSET 2.785660 3.866016 -3.567305
				CHANNELS 3 Zrotation Yrotation Xrotation
				JOINT LeftFoot
				{
					OFFSET 9.327613 -5.025424 -11.603628
					CHANNELS 3 Zrotation Yrotation Xrotation
					JOINT LeftToeBase
					{
						OFFSET -3.428050 -1.841318 -11.093254
						CHANNELS 3 Zrotation Yrotation Xrotation
						End Site
						{
							OFFSET 0.000000 0.000000 0.000000
						}
					}
				}
			}
		}
	}
	JOINT RHipJoint
	{
		OFFSET 5.495824 -5.151551 18.243622
		CHANNELS 3 Zrotation Yrotation Xrotation
		JOINT RightUpLeg
		{
			OFFSET -23.105360 -17.707834 30.731472
			CHANNELS 3 Zrotation Yrotation Xrotation
			JOINT RightLeg
			{
				OFFSET 9.666821 -21.026876 -26.974052
				CHANNELS 3 Zrotation Yrotation Xrotation
				JOINT RightFoot
				{
					OFFSET -9.583385 -5.179278 17.697262
					CHANNELS 3 Zrotation Yrotation Xrotation
					JOINT RightToeBase
					{
						OFFSET 18.225346 40.232815 39.609062
						CHANNELS 3 Zrotation Yrotation Xrotation
						End Site
						{
							OFFSET 0.000000 0.000000 0.000000
						}
					}
				}
			}
		}
	}
	JOINT LowerBack
	{
		OFFSET 37.615849 29.196836 17.805578
		CHANNELS 3 Zrotation Yrotation Xrotation
		JOINT Spine
		{
			OFFSET 26.118319 27.185705 34.409050
			CHANNELS 3 Zrotation Yrotation Xrotation
			JOINT Spine1
			{
				OFFSET 28.346685 28.737314 38.618977
				CHANNELS 3 Zrotation Yrotation Xrotation
				JOINT Neck
				{
					OFFSET 38.489735 43.082592 45.659901
					CHANNELS 3 Zrotation Yrotation Xrotation
					JOINT Neck1
					{
						OFFSET 27.700180 29.191578 9.641229
						CHANNELS 3 Zrotation Yrotation Xrotation
						JOINT Head
						{
							OFFSET 22.537237 27.783073 16.191700
							CHANNELS 3 Zrotation Yrotation Xrotation
							End Site
							{
								OFFSET 0.000000 0.000000 0.000000
							}
						}
					}
				}
				JOINT LeftShoulder
				{
					OFFSET 28.075010 -4.786860 28.180313
					CHANNELS 3 Zrotation Yrotation Xrotation
					JOINT LeftArm
					{
						OFFSET 35.787281 2.025336 52.478699
						CHANNELS 3 Zrotation Yrotation Xrotation
						JOINT LeftForeArm
						{
							OFFSET 27.311028 42.489738 42.868324
							CHANNELS 3 Zrotation Yrotation Xrotation
							JOINT LeftHand
							{
								OFFSET 18.108696 14.712060 10.261465
								CHANNELS 3 Zrotation Yrotation Xrotation
								JOINT LeftFingerBase
								{
									OFFSET 19.481339 37.141273 43.300968
									CHANNELS 3 Zrotation Yrotation Xrotation
									JOINT LeftHandIndex1
									{
										OFFSET 33.154793 7.791660 -24.827620
										CHANNELS 3 Zrotation Yrotation Xrotation
										End Site
										{
											OFFSET 0.000000 0.000000 0.000000
										}
									}
								}
								JOINT LThumb
								{
									OFFSET 20.378248 3.370570 6.790819
									CHANNELS 3 Zrotation Yrotation Xrotation
									End Site
									{
										OFFSET 0.000000 0.000000 0.000000
									}
								}
							}
						}
					}
				}
				JOINT RightShoulder
				{
					OFFSET 6.054534 6.693532 10.411406
					CHANNELS 3 Zrotation Yrotation Xrotation
					JOINT RightArm
					{
						OFFSET -5.531957 13.674825 -6.593910
						CHANNELS 3 Zrotation Yrotation Xrotation
						JOINT RightForeArm
						{
							OFFSET -20.341272 -3.281077 -10.164089
							CHANNELS 3 Zrotation Yrotation Xrotation
							JOINT RightHand
							{
								OFFSET -6.498815 -0.666404 -1.156832
								CHANNELS 3 Zrotation Yrotation Xrotation
								JOINT RightFingerBase
								{
									OFFSET 0.802323 -5.556721 -9.029456
									CHANNELS 3 Zrotation Yrotation Xrotation
									JOINT RightHandIndex1
									{
										OFFSET -10.823294 -10.823493 -14.582971
										CHANNELS 3 Zrotation Yrotation Xrotation
										End Site
										{
											OFFSET 0.000000 0.000000 0.000000
										}
									}
								}
								JOINT RThumb
								{
									OFFSET -8.260607 -3.893578 7.953658
									CHANNELS 3 Zrotation Yrotation Xrotation
									End Site
									{
										OFFSET 0.666510 0.755325 3.046450
									}
								}
							}
						}
					}
				}
			}
		}
	}
}
MOTION
Frames: 9
Frame Time: 0.008333
9.281503 15.577320 -96.262688 -17.839956 -8.189394 17.147402 25.240255 -1.048977 -7.137912 -55.717827 -40.762817 -99.905609 -9.177685 16.975588 55.888477 0.247686 -11.430278 -37.444038 3.627564 -2.894818 34.314045 -226.092102 -94.969986 5.516775 75.273186 52.225765 43.211742 44.710434 26.671173 127.887360 -6.824106 -9.549000 5.665257 3.187528 -4.412744 -18.557991 27.767662 14.965197 59.466473 5.501880 4.261173 8.833505 20.255629 12.590049 17.199965 -27.389851 3.505350 -19.771542 7.998193 17.054680 70.229637 12.617230 -36.950676 -3.351448 -30.279573 -120.025230 -0.695383 -171.403442 62.434597 -80.715515 -224.442017 -106.566025 -28.807386 3.645520 4.506642 -90.543816 -142.220657 -308.089355 -579.026550 -7.125000 0.000000 0.000000 -140.610107 -236.651871 -397.049652 -55.162792 14.207374 4.097170 -54.087677 -55.924969 -108.859833 -34.997223 1.507881 -41.673176 -3.895053 1.588684 31.630402 73.568214 43.790249 -9.133719 7.125000 0.000000 0.000000 -192.280884 -4.937527 177.176407
-14.710426 14.696711 -51.738705 -16.591349 -28.777422 9.884310 34.513245 7.331851 7.106882 -23.283689 10.072131 -89.243073 -22.123011 -1.743183 4.459379 -6.334340 -0.698256 35.995392 7.104504 17.194090 149.193558 -239.786270 -109.182564 18.187698 99.300575 49.535946 13.182365 38.488827 20.653503 119.136429 -8.070202 61.529568 147.767197 15.729065 29.745277 41.388042 29.363695 20.629799 83.099228 15.494762 28.624498 49.731071 66.596535 43.330147 79.650490 20.965508 42.286438 29.471172 18.706238 73.606361 194.663422 76.721565 25.833300 98.627518 55.934933 -58.301907 23.759951 87.401917 654.245667 757.414062 365.605560 299.074402 423.610291 36.928562 83.941124 767.613586 214.172302 130.159851 -310.043854 -7.125000 0.000000 0.000000 739.309509 349.047333 320.220398 81.519943 120.248734 36.815285 85.933365 59.813557 146.024338 67.879013 70.127213 16.343433 1.340822 8.462915 117.279190 273.674347 131.088211 203.995209 7.125000 0.000000 0.000000 170.492035 178.943298 340.909393
-1.536638 19.216864 74.783981 -9.544624 -1.904154 24.556780 41.083271 7.882075 2.914511 -57.634407 -32.554451 -40.840622 -4.486073 7.693021 43.651634 -11.770639 28.149921 23.083307 4.926844 0.821657 166.637939 -221.350952 -117.275963 13.377657 104.529671 76.356056 69.988846 54.467522 23.634914 129.124710 -8.274699 50.346569 125.864517 15.793421 41.228062 137.219254 47.118008 45.383022 115.763878 29.944290 54.741444 75.159172 87.844376 48.454952 91.931351 36.846966 57.237942 79.686424 31.274403 105.376167 223.966019 66.915878 12.753389 68.656868 52.399971 -86.228226 26.135824 17.375587 472.493683 231.568954 -74.355606 40.199776 92.391167 17.587606 34.150646 245.699249 28.318827 74.899727 -352.520325 -7.125000 0.000000 0.000000 248.149567 -18.591423 -191.366425 21.003187 95.535286 25.115948 40.591690 56.707676 141.869904 16.355824 45.236454 -2.592047 -0.558262 5.950755 91.054115 105.798988 35.645748 -63.707478 7.125000 0.000000 0.000000 138.546463 123.795471 273.192932
0.664855 20.499043 169.305679 -0.238103 17.683472 14.540481 19.781128 -0.551728 -2.192027 -74.605431 -63.425156 -131.400238 -34.200363 -21.223820 -41.614944 -32.425968 -14.137312 -33.854019 -1.375126 -23.619368 64.523880 -282.353668 -149.188980 -19.054848 -2.139555 -31.227253 -114.734360 22.289223 -21.911678 -18.904839 -48.948280 -151.227539 -204.154694 -21.991173 -90.603897 -350.232544 -68.641335 -48.911304 -36.005108 -40.069885 -93.936211 -74.104156 -34.794601 -57.127178 -142.450500 -170.954163 -110.393188 -153.908234 -74.379478 -119.671432 -92.510025 -62.539635 -71.546013 -72.082474 -70.390114 -241.506592 -16.555584 -236.109467 92.129593 -355.592621 -545.432251 -256.529816 -238.059998 0.977118 -4.349080 -475.865875 -404.324158 -856.793274 -1141.147949 -7.125000 0.000000 0.000000 -665.258789 -967.634460 -1538.273926 -113.652756 36.252163 5.796469 -95.788483 -95.292953 -165.098892 -131.402893 -43.661644 -123.729279 -15.682486 -8.645063 -103.974152 -366.796204 -131.389191 -391.810608 7.125000 0.000000 0.000000 -489.481323 -182.213104 -448.072998
5.561780 19.150766 75.574036 -9.161543 -9.554574 -11.030481 10.843530 2.501091 6.585001 -25.087074 -1.098939 -68.458229 -15.257332 0.240847 32.165257 6.292161 118.238892 67.269844 9.295936 27.966396 259.454163 -167.099838 -93.493118 35.163395 137.994736 72.432411 81.223816 63.812717 28.431801 180.674149 3.735179 62.425793 103.509705 14.494621 43.341133 106.529755 30.231794 32.240250 93.226830 19.374012 23.676514 43.432434 73.520729 37.669041 77.650909 40.829224 56.962826 64.685432 13.753452 98.540207 203.158081 104.371864 54.793106 157.175201 160.638046 -27.821280 48.065529 128.329697 719.026611 721.307190 252.567627 244.500702 269.488007 22.834541 52.489780 606.596924 171.597397 290.433136 -407.675812 -7.125000 0.000000 0.000000 534.603333 59.811310 -70.018295 -2.389251 94.379677 19.954756 -16.505646 17.255024 106.410645 28.857819 86.134605 9.780892 3.025777 8.953530 148.393768 249.879974 172.239395 243.560989 7.125000 0.000000 0.000000 259.489746 164.321548 279.308380
0.532069 18.664261 76.512756 5.919450 22.621815 2.422152 23.411566 4.677545 6.872820 -42.451012 -25.136602 -121.964355 -22.727911 -11.488544 -17.204786 -6.891005 39.462193 -4.185970 4.040099 -6.812683 109.337578 -222.967560 -122.407257 -9.280303 13.197407 -9.438279 -18.524830 38.301483 -9.259158 -2.295650 -50.616783 -151.415588 -208.131622 -18.004530 -75.926811 -290.501404 -57.870102 -48.038578 -39.213669 -38.239487 -88.286552 -68.427437 -22.547972 -43.822052 -111.413292 -128.349899 -85.026756 -141.157532 -70.292168 -112.436256 -115.333763 -87.262978 -93.805923 -111.400642 -77.802742 -217.904617 -11.673605 -223.216354 42.732841 -344.217957 -511.554108 -249.895523 -181.490891 -0.237775 1.924097 -94.057365 -216.910568 -303.802643 -869.456909 -7.125000 0.000000 0.000000 -113.705009 -597.856628 -839.799866 -78.086212 53.718750 13.307100 -59.989883 -63.839493 -101.874023 -96.918983 -9.617687 -78.118004 -7.769703 -0.894440 29.792894 -7.596551 72.398209 31.155100 7.125000 0.000000 0.000000 -27.445007 18.359287 53.319592
1.759519 18.606125 79.025581 0.637182 28.954201 14.305696 36.256721 8.293390 14.230626 -18.219118 4.479235 -76.768036 -6.252956 3.776654 42.351303 1.106506 70.193893 48.778145 6.911364 7.240563 145.336517 -210.911652 -115.081589 2.931685 67.379990 26.944824 20.471523 43.631367 -5.150815 49.247314 -28.196161 3.508690 6.608625 6.820683 12.715020 7.929421 8.271897 6.728107 51.550198 -3.617408 -20.789099 -4.834417 32.549164 1.994581 -11.768306 -26.405321 -0.836784 -29.609554 -28.675743 -21.708202 20.280436 9.979011 -18.363333 29.264019 56.224388 -160.665710 7.117661 -118.814880 201.152328 66.627129 -182.211746 -32.803726 23.597507 5.301016 12.173726 43.388779 -168.448257 16.429300 -619.694519 -7.125000 0.000000 0.000000 201.357742 -316.904968 -354.977753 -16.545980 99.434418 27.368685 27.250603 21.655947 83.030411 18.430691 73.451965 3.739023 -0.048196 2.936185 61.748398 -25.489063 59.557991 -25.199162 7.125000 0.000000 0.000000 -98.541573 -20.448822 -53.222462
1.165791 18.500536 79.817673 -7.620494 11.427373 -3.486423 20.145723 0.078456 2.846502 -46.221058 -24.314404 -77.912888 -0.071313 11.908603 68.764084 -1.658449 46.315830 -7.658841 0.280716 -16.653738 85.953300 -225.566910 -121.495239 -9.371527 33.388344 -3.333898 -23.827099 38.760460 -9.531089 -2.572651 -46.212795 -101.130981 -162.964523 -12.363469 -59.474823 -279.163177 -55.878685 -45.033684 -21.673439 -30.235811 -67.844872 -47.438675 -2.611017 -29.323145 -86.782280 -100.158409 -67.084038 -113.458328 -54.851948 -74.711929 -50.802773 -43.733898 -71.493324 -75.480522 -26.268377 -227.441757 -6.674757 -201.669800 23.485596 -139.844269 -366.134583 -148.144760 -101.002174 -0.281062 5.616279 80.472198 -180.623901 17.313150 -701.309814 -7.125000 0.000000 0.000000 -10.161863 -448.483398 -492.160706 -64.580940 58.715645 10.904108 -72.776230 -69.943108 -113.319519 -73.070717 -0.150389 -50.672764 -6.552190 -3.073435 -21.428846 -205.658920 1.648068 -117.716042 7.125000 0.000000 0.000000 -125.717827 -39.527992 -32.443039
0.692693 17.943331 56.688789 -11.274188 0.840151 -9.874016 11.422606 -2.580000 -0.876145 -46.207901 -21.608225 -79.018486 -11.460279 -2.367935 20.660023 0.515849 77.266098 35.920418 6.304984 -2.156121 117.328209 -209.417572 -114.563583 -7.552699 19.703638 -32.595741 -53.696114 26.978054 -20.954599 -28.738346 -49.270119 -109.501160 -149.341370 -8.252692 -36.750896 -165.845367 -15.309196 -10.917788 32.380466 -11.265659 -36.504498 -18.470005 24.568455 -6.062408 -23.410299 -40.475426 -12.477142 -31.327826 -15.169915 23.069214 76.532600 20.988035 -22.078823 3.932036 50.183617 -148.528625 16.500776 -76.449821 284.743713 296.694641 -61.093552 105.327240 144.539185 11.773705 24.225195 105.875366 -198.044525 -84.987656 -764.900940 -7.125000 0.000000 0.000000 123.178436 -304.471283 -264.893860 -25.013187 90.282356 20.794962 -16.379868 -1.580871 -40.727184 -30.724796 28.356022 -22.063980 -2.888712 1.224966 25.705070 -86.030556 30.438114 -89.821091 7.125000 0.000000 0.000000 -206.282028 -83.009796 -234.657700
